<?xml version="1.0" standalone="no"?>
<!DOCTYPE svg PUBLIC "-//W3C//DTD SVG 20010904//EN"
 "http://www.w3.org/TR/2001/REC-SVG-20010904/DTD/svg10.dtd">
<svg version="1.0" xmlns="http://www.w3.org/2000/svg"
 width="328.000000pt" height="328.000000pt" viewBox="0 0 328.000000 328.000000"
 preserveAspectRatio="xMidYMid meet">
<metadata>
Created by potrace 1.11, written by Peter Selinger 2001-2013
</metadata>
<g transform="translate(0.000000,328.000000) scale(0.100000,-0.100000)"
fill="#000000" stroke="none">
<path d="M1585 2145 c-42 -41 -29 -82 35 -115 22 -11 40 -27 40 -36 0 -22 -31
-30 -45 -11 -15 21 -55 22 -55 2 0 -47 82 -72 128 -39 19 13 22 24 20 57 -3
38 -7 44 -45 65 -28 15 -43 30 -43 43 0 22 28 26 36 4 4 -8 17 -15 30 -15 30
0 31 23 4 50 -28 28 -75 26 -105 -5z"/>
<path d="M2837 2150 c-25 -20 -27 -26 -27 -99 0 -98 12 -116 74 -116 25 0 50
5 57 12 29 29 30 176 2 204 -5 5 -25 12 -44 15 -26 4 -41 0 -62 -16z m68 -100
c0 -68 -2 -75 -20 -75 -18 0 -20 8 -23 64 -4 75 2 94 25 89 15 -3 18 -15 18
-78z"/>
<path d="M1290 2050 l0 -110 53 0 c28 0 57 4 64 8 31 19 45 131 22 175 -17 32
-28 37 -86 37 l-53 0 0 -110z m94 34 c12 -59 -10 -124 -36 -108 -4 3 -8 36 -8
75 0 61 2 69 19 69 14 0 21 -10 25 -36z"/>
<path d="M1470 2050 l0 -110 30 0 30 0 0 110 0 110 -30 0 -30 0 0 -110z"/>
<path d="M1730 2140 c0 -15 7 -20 25 -20 25 0 25 -1 25 -90 0 -89 0 -90 25
-90 25 0 25 1 25 90 0 89 0 90 25 90 18 0 25 5 25 20 0 18 -7 20 -75 20 -68 0
-75 -2 -75 -20z"/>
<path d="M1900 2050 l0 -110 30 0 c29 0 30 2 30 46 0 38 3 45 18 42 12 -2 18
-15 20 -46 3 -39 5 -42 32 -42 27 0 28 1 23 43 -3 23 -10 48 -16 55 -8 10 -7
16 3 22 17 10 17 64 0 84 -9 12 -31 16 -76 16 l-64 0 0 -110z m98 46 c-4 -31
-38 -34 -38 -3 0 29 7 37 27 30 8 -3 13 -15 11 -27z"/>
<path d="M2090 2050 l0 -110 25 0 25 0 0 110 0 110 -25 0 -25 0 0 -110z"/>
<path d="M2180 2050 l0 -111 67 3 c62 3 69 5 83 31 14 25 13 30 -3 59 -12 22
-15 34 -7 42 15 15 12 52 -6 70 -10 11 -34 16 -75 16 l-59 0 0 -110z m94 61
c9 -14 -4 -41 -20 -41 -8 0 -14 10 -14 25 0 25 23 35 34 16z m6 -107 c0 -13
-2 -24 -4 -24 -2 0 -11 -3 -20 -6 -12 -5 -16 1 -16 23 0 16 3 32 6 36 12 12
34 -6 34 -29z"/>
<path d="M2370 2070 c0 -83 2 -93 25 -115 30 -31 77 -33 105 -5 17 17 20 33
20 115 0 95 0 95 -25 95 -25 0 -25 -1 -25 -90 0 -72 -3 -92 -15 -97 -25 -9
-29 2 -29 95 l-1 87 -27 3 -28 3 0 -91z"/>
<path d="M2540 2140 c0 -15 7 -20 25 -20 25 0 25 -1 25 -90 0 -89 0 -90 25
-90 25 0 25 1 25 90 0 89 0 90 25 90 18 0 25 5 25 20 0 18 -7 20 -75 20 -68 0
-75 -2 -75 -20z"/>
<path d="M2710 2050 l0 -110 30 0 30 0 0 110 0 110 -30 0 -30 0 0 -110z"/>
<path d="M3000 2050 l0 -110 25 0 c24 0 25 2 26 68 0 37 2 63 4 57 2 -5 11
-36 20 -67 14 -54 18 -58 45 -58 l30 0 0 110 0 110 -25 0 c-24 0 -25 -3 -26
-62 l-1 -63 -19 63 c-18 58 -22 62 -49 62 l-30 0 0 -110z"/>
<path d="M1030 2003 c-30 -11 -50 -36 -56 -72 -5 -26 -31 -63 -99 -138 -101
-112 -114 -141 -90 -200 8 -19 53 -75 99 -124 52 -55 87 -100 91 -118 9 -43
51 -74 90 -67 95 19 79 156 -19 156 -30 0 -44 10 -115 87 -45 48 -81 96 -81
106 0 11 39 63 87 116 70 77 94 97 122 102 78 14 98 109 30 144 -30 16 -35 17
-59 8z m64 -28 c37 -37 27 -88 -22 -106 -33 -13 -76 16 -80 54 -6 51 66 88
102 52z m13 -581 c13 -20 13 -29 3 -54 -22 -54 -102 -50 -116 6 -8 31 4 54 35
70 30 15 59 7 78 -22z"/>
<path d="M1040 1945 c-21 -22 -21 -25 -6 -25 13 0 16 -5 12 -17 -5 -14 -1 -12
16 5 18 18 20 24 9 31 -7 5 -10 14 -7 20 12 19 1 12 -24 -14z"/>
<path d="M1041 1379 c-10 -17 -10 -23 -1 -29 7 -5 9 -14 5 -21 -4 -8 3 -4 16
9 19 18 21 24 10 31 -7 5 -10 14 -7 20 4 6 3 11 -1 11 -5 0 -14 -10 -22 -21z"/>
<path d="M1280 1732 c0 -118 11 -135 81 -130 58 4 69 27 69 141 l0 88 -27 -3
c-28 -3 -28 -3 -33 -98 -4 -76 -8 -95 -20 -95 -12 0 -16 19 -18 98 -3 96 -3
97 -27 97 -25 0 -25 0 -25 -98z"/>
<path d="M1450 1811 c0 -13 8 -21 23 -23 21 -3 22 -8 25 -95 3 -91 3 -93 27
-93 24 0 24 2 27 93 3 87 4 92 26 95 14 2 22 10 22 23 0 17 -8 19 -75 19 -67
0 -75 -2 -75 -19z"/>
<path d="M1634 1817 c-2 -7 -3 -58 -2 -113 l3 -99 28 -3 27 -3 0 115 0 116
-25 0 c-14 0 -28 -6 -31 -13z"/>
<path d="M1730 1716 l0 -116 65 0 c58 0 65 2 65 20 0 16 -7 20 -35 20 l-34 0
-3 93 -3 92 -27 3 -28 3 0 -115z"/>
<path d="M1900 1725 c0 -58 -1 -108 -2 -112 -2 -5 9 -9 25 -11 l27 -3 0 115 0
116 -25 0 -25 0 0 -105z"/>
<path d="M1980 1811 c0 -13 8 -21 23 -23 21 -3 22 -8 25 -95 3 -91 3 -93 27
-93 25 0 25 1 25 95 l0 95 26 0 c19 0 25 5 22 18 -3 14 -16 18 -76 20 -66 3
-72 1 -72 -17z"/>
<path d="M2150 1822 c0 -5 11 -35 25 -66 16 -36 25 -75 25 -107 0 -49 1 -50
28 -47 25 3 27 7 33 63 4 33 16 82 28 108 26 61 26 59 -6 55 -21 -2 -29 -10
-37 -35 -5 -18 -12 -33 -16 -33 -4 0 -11 15 -16 33 -8 25 -16 33 -37 35 -15 2
-27 -1 -27 -6z"/>
<path d="M2440 1715 l0 -115 25 0 c24 0 25 2 26 73 l1 72 17 -70 c13 -57 20
-71 37 -73 19 -3 23 5 35 75 l14 78 3 -77 c3 -75 4 -78 27 -78 l25 0 0 115 0
115 -39 0 -39 0 -7 -52 c-13 -92 -20 -96 -34 -19 l-13 71 -39 0 -39 0 0 -115z"/>
<path d="M2694 1817 c-2 -7 -3 -58 -2 -113 l3 -99 68 -3 c62 -3 67 -1 67 18 0
17 -6 20 -40 20 -38 0 -40 2 -40 30 0 28 3 30 35 30 28 0 35 4 35 20 0 16 -7
20 -36 20 -31 0 -35 3 -32 23 2 18 10 23 41 25 30 3 37 7 35 20 -4 23 -125 31
-134 9z"/>
<path d="M2870 1715 l0 -115 65 0 c58 0 65 2 65 20 0 17 -7 20 -40 20 -38 0
-40 2 -40 30 0 28 3 30 35 30 28 0 35 4 35 20 0 16 -7 20 -36 20 -31 0 -35 3
-32 23 2 18 10 23 41 25 29 3 37 7 37 23 0 17 -7 19 -65 19 l-65 0 0 -115z"/>
<path d="M3027 1823 c-16 -15 -6 -33 18 -33 25 0 25 0 25 -96 l0 -95 26 3 c26
3 26 4 28 93 1 85 2 90 24 93 14 2 22 10 22 23 0 17 -7 19 -68 19 -38 0 -72
-3 -75 -7z"/>
<path d="M1064 1730 c-36 -14 -64 -59 -64 -102 0 -120 180 -135 204 -17 9 46
-17 97 -58 114 -40 17 -52 17 -82 5z m93 -42 c51 -48 15 -138 -54 -138 -70 0
-106 78 -62 134 27 34 82 36 116 4z"/>
<path d="M1960 1481 c0 -13 -8 -21 -22 -23 -20 -3 -23 -9 -23 -48 0 -43 1 -45
33 -48 l32 -3 0 70 c0 41 -4 71 -10 71 -5 0 -10 -9 -10 -19z m-5 -71 c0 -13
-6 -25 -12 -27 -9 -3 -13 6 -13 27 0 21 4 30 13 28 6 -3 12 -15 12 -28z"/>
<path d="M2239 1464 c-1 -27 -3 -31 -6 -14 -8 43 -23 47 -23 7 0 -30 4 -37 20
-37 13 0 20 7 20 20 0 27 18 25 23 -2 l4 -23 2 23 c0 13 -8 32 -19 44 l-20 22
-1 -40z"/>
<path d="M1440 1475 c-16 -19 -5 -34 12 -17 35 35 38 -9 3 -54 -14 -18 -25
-35 -25 -38 0 -3 18 -6 40 -6 22 0 40 5 40 10 0 6 -9 10 -20 10 -21 0 -27 15
-9 25 15 10 29 53 23 70 -8 19 -48 19 -64 0z"/>
<path d="M1524 1465 c-8 -34 1 -55 26 -55 11 0 20 -7 20 -15 0 -8 -9 -15 -20
-15 -11 0 -20 -4 -20 -10 0 -18 49 -11 60 9 25 47 5 111 -35 111 -18 0 -26 -7
-31 -25z m46 -15 c0 -25 -18 -36 -26 -16 -8 21 3 49 16 41 5 -3 10 -15 10 -25z"/>
<path d="M1610 1457 c0 -33 3 -37 25 -37 19 0 25 5 26 23 1 21 1 21 9 -3 8
-25 8 -25 9 -2 1 21 -19 52 -33 52 -3 0 -7 -15 -7 -32 -2 -28 -2 -29 -6 -8 -8
43 -23 47 -23 7z"/>
<path d="M2037 1476 c-7 -18 18 -22 29 -5 4 8 9 7 15 -2 6 -9 3 -18 -8 -26
-16 -12 -15 -14 3 -27 15 -12 16 -17 7 -27 -10 -10 -15 -9 -28 1 -20 17 -32 5
-15 -15 15 -18 44 -20 58 -2 5 6 9 35 9 62 -2 48 -3 50 -33 53 -21 2 -33 -2
-37 -12z"/>
<path d="M2129 1464 c-15 -40 1 -98 27 -102 31 -5 46 21 42 75 -3 44 -5 48
-30 51 -23 3 -30 -2 -39 -24z m49 -39 c-4 -56 -28 -58 -28 -2 0 24 3 47 7 51
13 13 24 -12 21 -49z"/>
<path d="M2340 1425 c0 -69 17 -90 22 -27 l3 37 20 -38 c10 -20 24 -36 29 -34
6 2 12 31 14 65 2 52 0 62 -14 62 -13 0 -15 -7 -12 -35 2 -19 1 -35 -2 -35 -4
0 -14 16 -23 35 -25 53 -37 43 -37 -30z"/>
<path d="M2653 1475 c-9 -25 6 -31 21 -9 13 17 15 17 21 2 4 -10 -3 -32 -19
-55 -14 -21 -26 -41 -26 -45 0 -5 16 -8 35 -8 19 0 35 5 35 10 0 6 -9 10 -19
10 -19 0 -19 1 2 38 11 22 18 46 14 55 -8 21 -56 22 -64 2z"/>
<path d="M2747 1483 c-12 -11 -8 -98 5 -111 31 -31 68 -1 68 53 0 39 -18 65
-44 65 -12 0 -26 -3 -29 -7z m43 -59 c0 -32 -4 -44 -12 -42 -14 5 -23 61 -14
85 11 27 26 2 26 -43z"/>
<path d="M2843 1476 c12 -10 17 -27 17 -65 0 -28 5 -51 10 -51 6 0 10 28 10
65 0 64 0 65 -27 65 -25 -1 -26 -2 -10 -14z"/>
<path d="M2943 1483 c32 -5 31 -1 12 -46 -17 -41 -20 -77 -6 -77 5 0 12 18 16
39 3 22 13 47 20 58 22 28 18 33 -27 32 -30 -2 -35 -3 -15 -6z"/>
<path d="M1747 1454 c-14 -14 -7 -25 13 -19 27 9 25 -8 -2 -20 -13 -6 -23 -19
-23 -30 0 -15 8 -21 33 -23 l33 -3 -3 48 c-2 39 -7 49 -23 51 -12 2 -24 0 -28
-4z m33 -64 c0 -5 -4 -10 -10 -10 -5 0 -10 5 -10 10 0 6 5 10 10 10 6 0 10 -4
10 -10z"/>
<path d="M1820 1411 c0 -28 5 -51 10 -51 6 0 10 18 10 40 0 29 4 40 15 40 11
0 15 -11 15 -40 0 -22 5 -40 11 -40 6 0 9 19 7 48 -3 45 -4 47 -35 50 l-33 3
0 -50z"/>
<path d="M2448 1435 c-22 -49 25 -98 60 -63 7 7 12 24 12 38 0 51 -52 69 -72
25z m47 -25 c0 -13 -6 -25 -12 -27 -9 -3 -13 6 -13 27 0 21 4 30 13 28 6 -3
12 -15 12 -28z"/>
<path d="M2530 1449 c0 -27 24 -89 33 -86 11 3 39 88 32 95 -8 9 -25 -10 -25
-29 0 -11 -4 -17 -10 -14 -5 3 -10 15 -10 26 0 10 -4 19 -10 19 -5 0 -10 -5
-10 -11z"/>
<path d="M3010 1360 c0 -24 15 -27 24 -4 9 22 8 24 -9 24 -8 0 -15 -9 -15 -20z"/>
<path d="M1283 1276 c11 -9 17 -27 17 -55 0 -22 5 -41 10 -41 6 0 10 19 10 41
0 28 6 46 18 55 15 12 12 13 -28 13 -40 0 -43 -1 -27 -13z"/>
<path d="M1360 1235 c0 -30 5 -55 10 -55 6 0 10 14 10 30 0 17 5 30 10 30 6 0
10 -13 10 -30 0 -16 5 -30 10 -30 6 0 10 16 10 36 0 27 -5 37 -20 41 -11 3
-20 12 -20 19 0 8 -4 14 -10 14 -5 0 -10 -25 -10 -55z"/>
<path d="M1551 1277 c-15 -18 -5 -44 20 -52 10 -4 19 -13 19 -21 0 -16 -16
-19 -25 -4 -8 13 -25 13 -25 0 0 -14 37 -31 54 -24 25 10 19 49 -9 62 -26 12
-34 32 -12 32 7 0 19 -6 26 -12 10 -11 12 -9 9 7 -4 24 -40 32 -57 12z"/>
<path d="M1630 1235 c0 -30 5 -55 10 -55 6 0 10 14 10 30 0 17 5 30 10 30 6 0
10 -13 10 -30 0 -16 5 -30 10 -30 6 0 10 16 10 36 0 27 -5 37 -20 41 -11 3
-20 12 -20 19 0 8 -4 14 -10 14 -5 0 -10 -25 -10 -55z"/>
<path d="M2140 1271 c-29 -55 6 -113 53 -89 26 13 22 48 -5 47 -13 0 -17 -3
-10 -6 19 -7 15 -35 -5 -31 -26 5 -31 66 -7 75 10 4 19 2 22 -5 2 -7 8 -9 13
-6 14 8 -10 34 -32 34 -10 0 -23 -9 -29 -19z"/>
<path d="M2470 1275 c0 -8 -7 -15 -15 -15 -9 0 -20 -10 -25 -22 l-9 -23 -7 23
c-5 16 -14 22 -35 22 -27 0 -29 -3 -29 -40 0 -22 5 -40 10 -40 6 0 10 14 10
31 0 42 23 33 31 -12 6 -31 9 -34 13 -10 2 17 16 24 16 9 0 -19 17 -27 43 -20
13 3 17 15 17 58 0 30 -4 54 -10 54 -5 0 -10 -7 -10 -15z m0 -60 c0 -26 -14
-33 -25 -15 -9 14 1 40 15 40 5 0 10 -11 10 -25z"/>
<path d="M2570 1236 c0 -46 3 -54 21 -59 38 -10 69 18 52 46 -4 7 -6 20 -4 31
3 22 -15 36 -46 36 -21 0 -23 -5 -23 -54z m48 23 c-2 -6 -8 -10 -13 -10 -5 0
-11 4 -13 10 -2 6 4 11 13 11 9 0 15 -5 13 -11z m6 -60 c-8 -14 -34 -11 -34 4
0 8 3 17 7 20 9 9 34 -13 27 -24z"/>
<path d="M2960 1235 c0 -30 5 -55 10 -55 6 0 10 25 10 55 0 30 -4 55 -10 55
-5 0 -10 -25 -10 -55z"/>
<path d="M1898 1269 c-7 -21 5 -89 16 -89 9 0 12 31 7 88 -1 15 -18 16 -23 1z"/>
<path d="M1440 1240 c-13 -25 -5 -56 16 -64 27 -10 39 6 13 17 -22 9 -23 10
-4 14 31 7 40 20 25 38 -17 21 -37 19 -50 -5z m40 -4 c0 -3 -4 -8 -10 -11 -5
-3 -10 -1 -10 4 0 6 5 11 10 11 6 0 10 -2 10 -4z"/>
<path d="M1712 1248 c-27 -27 1 -84 35 -71 13 5 12 8 -8 16 -22 9 -23 10 -4
14 31 7 40 20 25 38 -15 18 -32 19 -48 3z m38 -12 c0 -11 -19 -15 -25 -6 -3 5
1 10 9 10 9 0 16 -2 16 -4z"/>
<path d="M1780 1220 c0 -23 5 -40 11 -40 7 0 9 10 7 25 -3 14 -1 28 3 31 14 8
10 24 -6 24 -11 0 -15 -11 -15 -40z"/>
<path d="M1827 1254 c-14 -15 -6 -25 14 -19 15 5 19 4 15 -4 -4 -6 -14 -11
-22 -11 -17 0 -19 -37 -1 -43 6 -2 20 -2 30 1 27 7 20 76 -8 80 -12 2 -24 0
-28 -4z m33 -54 c0 -5 -4 -10 -10 -10 -5 0 -10 5 -10 10 0 6 5 10 10 10 6 0
10 -4 10 -10z"/>
<path d="M1951 1242 c-21 -39 14 -87 46 -61 22 19 13 73 -14 77 -13 2 -26 -4
-32 -16z m39 -27 c0 -14 -4 -25 -9 -25 -12 0 -23 29 -15 41 10 18 24 9 24 -16z"/>
<path d="M2020 1220 c0 -22 5 -40 10 -40 6 0 10 14 10 31 0 20 4 29 13 26 6
-2 12 -16 12 -30 1 -14 4 -29 8 -33 4 -4 7 14 7 39 0 46 -1 47 -30 47 -28 0
-30 -2 -30 -40z"/>
<path d="M2230 1220 c0 -22 5 -40 10 -40 6 0 10 11 10 24 0 13 3 31 6 40 4 11
1 16 -10 16 -12 0 -16 -10 -16 -40z"/>
<path d="M2287 1253 c-15 -14 -6 -24 16 -19 l22 6 -22 -11 c-35 -18 -30 -49 7
-49 25 0 30 4 30 24 0 13 -3 31 -6 40 -6 16 -35 22 -47 9z m33 -47 c0 -3 -4
-8 -10 -11 -5 -3 -10 -1 -10 4 0 6 5 11 10 11 6 0 10 -2 10 -4z"/>
<path d="M2667 1253 c-12 -12 -7 -60 7 -73 11 -8 20 -9 33 -1 16 9 16 10 -4
11 -13 0 -23 5 -23 10 0 6 6 10 14 10 19 0 28 14 20 34 -6 16 -35 22 -47 9z"/>
<path d="M2730 1220 c0 -22 5 -40 10 -40 6 0 10 14 10 30 0 20 5 30 15 30 11
0 15 -11 15 -36 0 -21 4 -33 10 -29 11 7 13 45 4 69 -4 10 -18 16 -35 16 -27
0 -29 -3 -29 -40z"/>
<path d="M2817 1253 c-4 -3 -7 -21 -7 -40 0 -26 4 -33 20 -33 27 0 25 -18 -2
-23 -20 -3 -21 -4 -5 -11 29 -14 47 11 47 65 0 45 -2 49 -23 49 -13 0 -27 -3
-30 -7z m33 -38 c0 -14 -4 -25 -9 -25 -12 0 -23 29 -15 41 10 18 24 9 24 -16z"/>
<path d="M2897 1253 c-14 -13 -6 -21 16 -17 l22 5 -22 -12 c-21 -11 -30 -38
-18 -51 3 -3 17 -3 30 0 25 4 33 30 19 66 -6 16 -35 22 -47 9z m33 -47 c0 -3
-4 -8 -10 -11 -5 -3 -10 -1 -10 4 0 6 5 11 10 11 6 0 10 -2 10 -4z"/>
<path d="M3000 1221 c0 -40 11 -51 43 -43 12 3 17 15 17 43 0 22 -4 39 -10 39
-5 0 -10 -16 -10 -35 0 -19 -4 -35 -10 -35 -5 0 -10 16 -10 35 0 19 -4 35 -10
35 -5 0 -10 -18 -10 -39z"/>
<path d="M3070 1220 c0 -22 5 -40 10 -40 6 0 10 14 10 30 0 17 5 30 10 30 6 0
10 5 10 10 0 6 -9 10 -20 10 -17 0 -20 -7 -20 -40z"/>
<path d="M3126 1248 c-4 -9 -6 -27 -4 -40 2 -18 10 -24 36 -26 31 -3 32 -2 32
37 0 49 -17 55 -22 9 -4 -42 -21 -39 -29 4 -4 25 -7 29 -13 16z"/>
<path d="M2506 1184 c-8 -21 -8 -24 3 -24 12 0 22 28 12 35 -5 3 -12 -2 -15
-11z"/>
</g>
</svg>
