<svg width="1200" height="628" viewBox="0 0 1200 628" fill="none" xmlns="http://www.w3.org/2000/svg">
<rect width="1200" height="628" fill="white"/>
<path fill-rule="evenodd" clip-rule="evenodd" d="M106.004 410.421C158.713 405.885 200.113 364.474 200.113 314.244C200.113 264.008 158.713 222.602 106.004 218.067L106.004 255.911C137.901 260.091 162.471 284.656 162.471 314.244C162.471 336.681 148.342 356.23 127.603 366.191H115.622C111.595 366.191 108.147 368.791 106.714 372.48C106.477 372.514 106.241 372.546 106.004 372.577V376.251C106.004 376.266 106.004 376.282 106.004 376.298L106.004 379.878L106.004 379.878L106.004 410.421Z" fill="#0A3690"/>
<path opacity="0.9" d="M263.924 292.774C263.924 333.999 230.386 367.537 189.15 367.537L114.261 367.537C109.698 367.537 106 371.235 106 375.798L106 329.89L189.15 329.89C209.623 329.89 226.283 313.236 226.283 292.768C226.283 272.301 209.628 255.636 189.15 255.636L106 255.636L106 218L189.15 218C230.386 218 263.924 251.538 263.924 292.774Z" fill="url(#paint0_linear_356_2)"/>
<path d="M361.018 370.492H327.35V258.513H386.686C412.686 258.513 426.687 275.973 426.687 296.958C426.687 317.776 412.686 335.236 386.686 335.236H361.018V370.492ZM382.352 305.689C388.019 305.689 392.519 302.834 392.519 296.958C392.519 290.915 388.019 288.061 382.352 288.061H361.018V305.689H382.352Z" fill="#0A3690"/>
<path d="M498.031 372.3C463.882 372.3 437.525 348.846 437.525 314.504C437.525 280.161 463.882 256.708 498.031 256.708C532.179 256.708 558.536 280.161 558.536 314.504C558.536 348.846 532.179 372.3 498.031 372.3ZM498.031 342.481C514.11 342.481 524.553 330.084 524.553 314.504C524.553 298.924 514.11 286.527 498.031 286.527C481.951 286.527 471.508 298.924 471.508 314.504C471.508 330.084 481.951 342.481 498.031 342.481Z" fill="#0A3690"/>
<path d="M652.452 370.494H576.595V256.708H610.272V340.469H652.452V370.494Z" fill="#0A3690"/>
<path d="M793.332 370.494H754.522L750.454 357.188H709.78L705.713 370.494H666.903L708.594 256.708H751.641L793.332 370.494ZM741.303 327.163L730.117 290.486L718.932 327.163H741.303Z" fill="#0A3690"/>
<path d="M907.118 370.492H868.848L853.539 335.236H841.393V370.492H807.781V258.513H867.017C892.975 258.513 906.952 275.973 906.952 296.958C906.952 316.265 895.803 326.506 886.984 330.871L907.118 370.492ZM861.859 305.689C867.516 305.689 872.841 303.002 872.841 296.791C872.841 290.747 867.516 288.061 861.859 288.061H841.393V305.689H861.859Z" fill="#0A3690"/>
<path d="M970.331 372.3H936.015V260.32H970.331V372.3Z" fill="#0A3690"/>
<path d="M1045.37 375.911C1020.93 375.911 1004.23 368.754 992.004 357.85L1010.08 332.291C1018.69 340.47 1031.6 346.945 1047.09 346.945C1053.64 346.945 1059.83 345.241 1059.83 340.811C1059.83 329.906 995.792 340.981 995.792 296.169C995.792 276.915 1011.97 258.513 1043.48 258.513C1062.24 258.513 1079.12 263.795 1092.2 274.359L1073.61 298.725C1063.62 291.227 1050.71 287.479 1039.86 287.479C1032.98 287.479 1031.08 289.694 1031.08 292.591C1031.08 303.325 1094.95 294.124 1094.95 336.38C1094.95 361.428 1076.19 375.911 1045.37 375.911Z" fill="#0A3690"/>
<defs>
<linearGradient id="paint0_linear_356_2" x1="247.538" y1="228.931" x2="86.7653" y2="339.454" gradientUnits="userSpaceOnUse">
<stop offset="0.226493" stop-color="#02C9A8"/>
<stop offset="1" stop-color="#ABC7FF"/>
</linearGradient>
</defs>
</svg>
